<?xml version="1.0" encoding="UTF-8"?>
<svg xmlns="http://www.w3.org/2000/svg" viewBox="0 0 500 500">
  <g id="Outline" style="" transform="matrix(0.356186, 0, 0, 0.356186, 213.598532, 148.415562)">
    <path d="M 353.772 237.527 C 354.877 237.527 355.772 236.631 355.772 235.527 L 355.772 231.527 C 355.772 230.757 354.939 230.276 354.272 230.661 C 353.963 230.839 353.772 231.169 353.772 231.527 L 353.772 235.527 L 349.772 235.527 C 349.754 235.527 349.74 235.536 349.722 235.537 C 347.875 230.96 341.766 230.1 338.727 233.988 C 338.358 234.46 338.056 234.981 337.832 235.537 C 337.811 235.538 337.793 235.527 337.772 235.527 L 333.772 235.527 L 333.772 231.527 C 333.772 230.757 332.939 230.276 332.272 230.661 C 331.963 230.839 331.772 231.169 331.772 231.527 L 331.772 235.527 C 331.772 236.631 332.668 237.527 333.772 237.527 L 337.257 237.527 L 336.244 241.527 L 332.772 241.527 C 332.002 241.527 331.521 242.36 331.906 243.027 C 332.085 243.336 332.415 243.527 332.772 243.527 L 335.737 243.527 L 335.592 244.1 L 335.572 244.227 C 335.528 244.569 335.504 244.914 335.502 245.259 C 335.503 246.026 335.612 246.79 335.825 247.527 L 333.772 247.527 C 332.668 247.527 331.772 248.422 331.772 249.527 L 331.772 253.527 C 331.772 254.296 332.606 254.778 333.272 254.393 C 333.582 254.214 333.772 253.884 333.772 253.527 L 333.772 249.527 L 336.702 249.527 C 339.907 254.86 347.638 254.86 350.842 249.527 L 353.772 249.527 L 353.772 253.527 C 353.772 254.296 354.606 254.778 355.272 254.393 C 355.582 254.214 355.772 253.884 355.772 253.527 L 355.772 249.527 C 355.772 248.422 354.877 247.527 353.772 247.527 L 351.719 247.527 C 351.934 246.788 352.043 246.023 352.044 245.254 C 352.041 244.91 352.017 244.567 351.972 244.227 L 351.797 243.527 L 354.772 243.527 C 355.542 243.527 356.023 242.693 355.638 242.027 C 355.46 241.717 355.129 241.527 354.772 241.527 L 351.294 241.527 L 350.285 237.527 L 353.772 237.527 Z M 343.772 251.527 C 340.309 251.523 337.504 248.716 337.5 245.254 C 337.502 245.011 337.517 244.768 337.547 244.527 L 339.577 236.497 C 340.715 233.267 344.922 232.48 347.15 235.08 C 347.498 235.487 347.77 235.953 347.953 236.456 L 349.997 244.527 C 350.027 244.767 350.043 245.009 350.044 245.252 C 350.042 248.715 347.236 251.523 343.772 251.527 Z" style="stroke-width: 1;"></path>
  </g>
</svg>